<mxfile host="app.diagrams.net" modified="2022-05-29T07:31:21.994Z" agent="5.0 (Macintosh; Intel Mac OS X 10_15_6) AppleWebKit/605.1.15 (KHTML, like Gecko) Version/15.4 Safari/605.1.15" etag="JawoScK6dvwtyTgR-rTP" version="18.1.1" type="github">
  <diagram id="ND3JI3yM224ZTxa6fe7e" name="Page-1">
    <mxGraphModel dx="722" dy="647" grid="0" gridSize="10" guides="1" tooltips="1" connect="1" arrows="1" fold="1" page="1" pageScale="1" pageWidth="827" pageHeight="1169" math="0" shadow="0">
      <root>
        <mxCell id="0" />
        <mxCell id="1" parent="0" />
        <mxCell id="v08rIDwoiFzqt1NzFTo6-140" value="" style="rounded=0;whiteSpace=wrap;html=1;fontSize=20;fillColor=#f5f5f5;fontColor=#333333;strokeColor=#666666;" vertex="1" parent="1">
          <mxGeometry x="89" y="277" width="512" height="228.66" as="geometry" />
        </mxCell>
        <mxCell id="v08rIDwoiFzqt1NzFTo6-26" value="" style="ellipse;whiteSpace=wrap;html=1;aspect=fixed;fillColor=#dae8fc;strokeColor=#6c8ebf;" vertex="1" parent="1">
          <mxGeometry x="160" y="380" width="40" height="40" as="geometry" />
        </mxCell>
        <mxCell id="v08rIDwoiFzqt1NzFTo6-27" value="" style="ellipse;whiteSpace=wrap;html=1;aspect=fixed;fillColor=#f8cecc;strokeColor=#b85450;" vertex="1" parent="1">
          <mxGeometry x="320" y="320" width="40" height="40" as="geometry" />
        </mxCell>
        <mxCell id="v08rIDwoiFzqt1NzFTo6-29" style="edgeStyle=orthogonalEdgeStyle;rounded=0;orthogonalLoop=1;jettySize=auto;html=1;entryX=0;entryY=0.5;entryDx=0;entryDy=0;curved=1;exitX=0.5;exitY=0;exitDx=0;exitDy=0;strokeWidth=2;" edge="1" parent="1" source="v08rIDwoiFzqt1NzFTo6-26" target="v08rIDwoiFzqt1NzFTo6-27">
          <mxGeometry relative="1" as="geometry" />
        </mxCell>
        <mxCell id="v08rIDwoiFzqt1NzFTo6-28" value="" style="ellipse;whiteSpace=wrap;html=1;aspect=fixed;fillColor=#d5e8d4;strokeColor=#82b366;" vertex="1" parent="1">
          <mxGeometry x="480" y="380" width="40" height="40" as="geometry" />
        </mxCell>
        <mxCell id="v08rIDwoiFzqt1NzFTo6-31" style="edgeStyle=orthogonalEdgeStyle;curved=1;rounded=0;orthogonalLoop=1;jettySize=auto;html=1;entryX=0.5;entryY=1;entryDx=0;entryDy=0;exitX=0.5;exitY=1;exitDx=0;exitDy=0;strokeWidth=2;" edge="1" parent="1" source="v08rIDwoiFzqt1NzFTo6-26" target="v08rIDwoiFzqt1NzFTo6-28">
          <mxGeometry relative="1" as="geometry">
            <Array as="points">
              <mxPoint x="180" y="460" />
              <mxPoint x="500" y="460" />
            </Array>
          </mxGeometry>
        </mxCell>
        <mxCell id="v08rIDwoiFzqt1NzFTo6-30" style="edgeStyle=orthogonalEdgeStyle;curved=1;rounded=0;orthogonalLoop=1;jettySize=auto;html=1;entryX=0.5;entryY=0;entryDx=0;entryDy=0;strokeWidth=2;" edge="1" parent="1" source="v08rIDwoiFzqt1NzFTo6-27" target="v08rIDwoiFzqt1NzFTo6-28">
          <mxGeometry relative="1" as="geometry" />
        </mxCell>
        <mxCell id="v08rIDwoiFzqt1NzFTo6-35" value="" style="shape=stencil(rVjZbhsxDPwavxKSqPM5Tf8jQJzaqGsHjnv9fWdraLPi2tMW6NvaJi0ew+GsNvrwtnt63W6Ce7ucT5+33/fPl91GP2xC2B932/P+gqeNPm704eV03n46n74en6+fX58my+npy+nb9A8/rn7Niw+TV3A/r9/4LD7+/ubj1eGwPy4cqkp2o4NKa/cdShRNqxPKfYesUuPgELwk4pCS1DGHUKV5ckIWV0cHFQ0khyw6OvgipdIqRT86eKmkSg1FHKtUpLr79t45caYPUQJJujUJJuksgYWEFMeyapZG+tBQpTI4JCeJlLUh4vGEnCQkUtZmO12qFBJSBbzHpJvrWd1F69i4liQpxZIf+9CqZFLWlFfQeO/lTY8Ij3Eg0MtMkkCfUrQxeYINIKGYMuVeuNvwQ5/GVrcgmTQCZdXBvpbOI7cjslCqABexd33gZ/sokbTNWdqrQTzpGjo0xlManU/XYTnbFzoKON2MP2BH4oni8miPWSLxzNWb7ZXGAwxHa8/65Z0lbQQUyR7xwMsq48YcwJDOlpTREfgwjidURwlvIlDjwEGNkHSFupqJg5dixiDTSW6dShZjU9iytXuq1k6xt8nIwgj/X8nch17xRfyVEItfjX2iROQsTNGBRgq6WoJoMRsbJ9GMTaULx/fuzPacF9XWH1PA4pl3y3LMSL7oTrH2kfG062JuEZD7rw7NbthpLAnzAtPrsVRSI8WKN032lHsTlo1BdaAhQXV4tSEVckKBIB0HH+TF9ODEbeMJGfuAAA+4NEidVC47oVlqiZ7mMEkjI7MrV/5JshHBmSvOIm6sEvgjkz5AmxlVgZCUJV370ltIVCYTiuv8PDs0PqDZQiMGKWRC8XMcHYBfT5KO6z5oFxu3Q3K96nMfAp+HbFmMR4QiFXOAFI7VPLaN61nsGI3GPpCSQoFbHFGShHY1rKp9Dd3DqQHF/Mp6275aJZKoTJjUumELqtVgb8iiUlUBexM/WDxxBx1lBRDE1hoyTuYdXrtAvFfSuHo7pTmkfokwOyQ6Z3h3jCOo/R9eZ+e5XThEpr3+9WrkLxzw8H4T87I/HK4XOcvf7c0Nvrre+ujjLw==);lineShape=1;" vertex="1" parent="1">
          <mxGeometry x="420" y="303.78999999999996" width="35.95" height="31.55" as="geometry" />
        </mxCell>
        <mxCell id="v08rIDwoiFzqt1NzFTo6-62" value="" style="group" vertex="1" connectable="0" parent="1">
          <mxGeometry x="229.99572282033665" y="301.0727804859822" width="25.013428543616556" height="34.267520241605894" as="geometry" />
        </mxCell>
        <mxCell id="v08rIDwoiFzqt1NzFTo6-33" value="" style="shape=stencil(lVdJchsxDHyNrigQXHF2nH+4ynKkimK5ZDnL7wNliiMRo+kkt7GMBrE0muAmPrzvnt62G+H38+n4dftj/3zebeKnjcj+dbc97c/2tYmPm/jwcjxtv5yOH6/P099vTxfLy9e34/eLh58TrkXifEEJ/5p+CZWS/Pnl8wQ47F9vADVQrCMgE6d1QC7UdAQkYnBCqhTiABAhbuuAqNTSAIiRNABAoVwGQApUCwBEamNImSkoAJi/say5UUMnMKURUCpJXAeIUhgB1foAkpZGOQyAJpRA48T6wANAI1UUUu4pzoBMCpKWSHEsq1ZYpaBUR/KpwioZN/MCoCDpECiUBYDBPBCztw8gokh5kXIF/i2e4GuKqMqLeOxEMG1M0fkPJCAe8f6bEoN4Up/E2b5SBPE0qjLal070+/VZCFjLVMBoXvXtBqAVZBwosQ9JgR5ZztmF1Kigmi70SJkKCqn2Hs0AwZNWfNJGI0HDnyi6E+xMlHTwfdDWZXmtD+xCsulGjRMqIyDwzPYVLnl5UUqgrNY39SmgIpnIt9G+dBVfmTVxGSdYU16UNMAu37UH+QZqbhLmjFZm34lpjf2aW9G6NtanFBJwRZlWjPXPtbPwrn2hOmqLrQ4KGKR+sYhGURCPMS6OCZiLhihaqIybiARYIaOo0xaFy1TKfk2wdQz4L6mLbbf/y8RwJ8ycADXg32QnucWIMvCv844yU4IEMNpEx13Htc/0ffvmF4TWO3LfXvtGc9WUvvXc7zAvLlhbGQoqkXpxtysL7Y6Wg6upLcwFJV36ZXGzkjcwxyY7jnVGXAgwFo+8NvXOoG924bXFswKdcLmDeQEAnfvvh8s/AOzj+k562R8O0zPr9v/+XWU/TW+y+Pgb);lineShape=1;" vertex="1" parent="v08rIDwoiFzqt1NzFTo6-62">
          <mxGeometry x="6.996741150635444" width="18.01668739298111" height="34.267520241605894" as="geometry" />
        </mxCell>
        <mxCell id="v08rIDwoiFzqt1NzFTo6-34" value="" style="shape=stencil(lVbbUuMwDP2avGpsy7bsZxb+ozOUbWa7LVPKLvw9ClmHyJCzw1ua6FTXc6SBb54Ou8f9ENzT9XL+tf873l8PA/8YQhhPh/1lvOrTwLcD3zycL/ufl/Pz6X7+/bibLKen3+c/0z+8zDihWiZQcK/zC58o+fc3d7P9cTyt7EOiEgwgeMoAEAPFaj1UcrwNSJU49SEx8CCZUjaAQiFt21dP1Tpw5Bywj8Sxs6/IXuOx9lozZF+I2SYcyWcAqJQsQD34sA3wbsmwIVhakFsuxAKSI4+TyLYJ2VPCVap2LsThkCIV60EbHwoAhBbAAijkwSBVTdEOhmjnQEilkOuS1rqBRpRM0XrIjlgAIFG0/IyFpEJAsCFxJo899ITmVuivAUKuIzTD6dMqVTuuqf3DFj//BfzBN6QwlSn1fPaI/0tTlxKRIHtpFV8S9uQweYLvNRIqUu0rxEwMSqqAYkOKqdFpC+DsHCVVflRUaTVfJlXgWGhVO4BEEkRPptAJgDRh3gKw+w5AP4ttdImUQUi6eqqdPNUQJN263Kplm8qaAMA0+pZtK23+Oom2ChYPOr6Az7orO3tdJiBnpmy7oCqIZjVQ+FRTNKq+rY2VaiOJdP2y1blD2/bTZksFKqrr41FBzYA5qj0dNStFQBzdenaE2DfqbdSzWPEKuF+xeV+dU2gx536n+QyPi+8ehP+314eP6/NhPB7n43X9vb9W9dV86fLtGw==);lineShape=1;" vertex="1" parent="v08rIDwoiFzqt1NzFTo6-62">
          <mxGeometry y="15.424326992712395" width="23.835831549109116" height="4.494360225904302" as="geometry" />
        </mxCell>
        <mxCell id="v08rIDwoiFzqt1NzFTo6-94" value="" style="group" vertex="1" connectable="0" parent="1">
          <mxGeometry x="271.42083618012657" y="420.00293199889416" width="113.59080898488543" height="34.269432984793816" as="geometry" />
        </mxCell>
        <mxCell id="v08rIDwoiFzqt1NzFTo6-89" value="" style="shape=stencil(rVjZbhsxDPwavxKSqPM5Tf8jQJzaqGsHjnv9fWdraLPi2tMW6NvaJi0ew+GsNvrwtnt63W6Ce7ucT5+33/fPl91GP2xC2B932/P+gqeNPm704eV03n46n74en6+fX58my+npy+nb9A8/rn7Niw+TV3A/r9/4LD7+/ubj1eGwPy4cqkp2o4NKa/cdShRNqxPKfYesUuPgELwk4pCS1DGHUKV5ckIWV0cHFQ0khyw6OvgipdIqRT86eKmkSg1FHKtUpLr79t45caYPUQJJujUJJuksgYWEFMeyapZG+tBQpTI4JCeJlLUh4vGEnCQkUtZmO12qFBJSBbzHpJvrWd1F69i4liQpxZIf+9CqZFLWlFfQeO/lTY8Ij3Eg0MtMkkCfUrQxeYINIKGYMuVeuNvwQ5/GVrcgmTQCZdXBvpbOI7cjslCqABexd33gZ/sokbTNWdqrQTzpGjo0xlManU/XYTnbFzoKON2MP2BH4oni8miPWSLxzNWb7ZXGAwxHa8/65Z0lbQQUyR7xwMsq48YcwJDOlpTREfgwjidURwlvIlDjwEGNkHSFupqJg5dixiDTSW6dShZjU9iytXuq1k6xt8nIwgj/X8nch17xRfyVEItfjX2iROQsTNGBRgq6WoJoMRsbJ9GMTaULx/fuzPacF9XWH1PA4pl3y3LMSL7oTrH2kfG062JuEZD7rw7NbthpLAnzAtPrsVRSI8WKN032lHsTlo1BdaAhQXV4tSEVckKBIB0HH+TF9ODEbeMJGfuAAA+4NEidVC47oVlqiZ7mMEkjI7MrV/5JshHBmSvOIm6sEvgjkz5AmxlVgZCUJV370ltIVCYTiuv8PDs0PqDZQiMGKWRC8XMcHYBfT5KO6z5oFxu3Q3K96nMfAp+HbFmMR4QiFXOAFI7VPLaN61nsGI3GPpCSQoFbHFGShHY1rKp9Dd3DqQHF/Mp6275aJZKoTJjUumELqtVgb8iiUlUBexM/WDxxBx1lBRDE1hoyTuYdXrtAvFfSuHo7pTmkfokwOyQ6Z3h3jCOo/R9eZ+e5XThEpr3+9WrkLxzw8H4T87I/HK4XOcvf7c0Nvrre+ujjLw==);lineShape=1;container=0;" vertex="1" parent="v08rIDwoiFzqt1NzFTo6-94">
          <mxGeometry y="1.3573711836769462" width="39.99810508061752" height="31.551761056742755" as="geometry" />
        </mxCell>
        <mxCell id="v08rIDwoiFzqt1NzFTo6-90" value="" style="shape=stencil(lZbbbtswDIafxreEeNDpuuveo0DTxViWFGl2evsxM5SGsk0jd46czxTJn7808NPH/uV9N1D4uJxP33e/x9fLfuAvA9F43O/O40WfBn4e+OntdN59O59+Hl+n3+8v139en36cfl2/8GfiUoHMV4rC32klJpD8f+XrBBzG4z0gEKIFQltZBEiAqgEEAdM6IBrBAiVAEgdgyMUAnICdHHKGnAyQETI6AEKwEQoBOTkk/V62QIXiAFrELoeqWdE6wBVoBogDUAFJ/ZZCWAewzoAAlR2AgayWskrDaRwGkGC1lEGqA+BMSwLR6TRGKDYCEySnD6RFtPImglqcPiggBsAE0Zd3N3Gogndy0IHELkJs6loW322CbzkgiJNDFkh2S6wT50gjV8hdHwjQiVAQ2AIxuuLTCGTFl3Kr2zLAzSNu4lN5O0CKgFYaJbsTF1VqVhqVoDhJqy91RqYj6moJoaIFQltZVqtWvbNKjeDNg0C1OWjdvAg6otWW9dPa1oBofUkKFN81KvXuLRsAzgDXZkLTWiOCKz6teqK+SuKccUmNrGtcgurZDPXufbfJRWKWgpZVPGlIP6JYgL0cpJ2ZdybgndOadOwGSLPypFH6Q1HP1eJMHM5uAhuXEwVKJ74K6Mk7A9lObxiZ9qFaX1LxBQ/QE8jmwP71R19nuyXyfYlLS/EGxDa0qydQeASI2Fvlxpa0TZUfSVpNpTxUVnXv1M2D3zg9ProtbUjj8ZvxNqAPnxfxt/FwmO7x9+/7i7suTZd+fv4H);lineShape=1;container=0;" vertex="1" parent="v08rIDwoiFzqt1NzFTo6-94">
          <mxGeometry x="60.580065657017656" y="11.361909494691986" width="7.246937263657689" height="6.438947134778974" as="geometry" />
        </mxCell>
        <mxCell id="v08rIDwoiFzqt1NzFTo6-101" value="" style="group" vertex="1" connectable="0" parent="v08rIDwoiFzqt1NzFTo6-94">
          <mxGeometry x="88.57856540203312" width="25.012243582852292" height="34.269432984793816" as="geometry" />
        </mxCell>
        <mxCell id="v08rIDwoiFzqt1NzFTo6-91" value="" style="shape=stencil(lVdJchsxDHyNrigQXHF2nH+4ynKkimK5ZDnL7wNliiMRo+kkt7GMBrE0muAmPrzvnt62G+H38+n4dftj/3zebeKnjcj+dbc97c/2tYmPm/jwcjxtv5yOH6/P099vTxfLy9e34/eLh58TrkXifEEJ/5p+CZWS/Pnl8wQ47F9vADVQrCMgE6d1QC7UdAQkYnBCqhTiABAhbuuAqNTSAIiRNABAoVwGQApUCwBEamNImSkoAJi/say5UUMnMKURUCpJXAeIUhgB1foAkpZGOQyAJpRA48T6wANAI1UUUu4pzoBMCpKWSHEsq1ZYpaBUR/KpwioZN/MCoCDpECiUBYDBPBCztw8gokh5kXIF/i2e4GuKqMqLeOxEMG1M0fkPJCAe8f6bEoN4Up/E2b5SBPE0qjLal070+/VZCFjLVMBoXvXtBqAVZBwosQ9JgR5ZztmF1Kigmi70SJkKCqn2Hs0AwZNWfNJGI0HDnyi6E+xMlHTwfdDWZXmtD+xCsulGjRMqIyDwzPYVLnl5UUqgrNY39SmgIpnIt9G+dBVfmTVxGSdYU16UNMAu37UH+QZqbhLmjFZm34lpjf2aW9G6NtanFBJwRZlWjPXPtbPwrn2hOmqLrQ4KGKR+sYhGURCPMS6OCZiLhihaqIybiARYIaOo0xaFy1TKfk2wdQz4L6mLbbf/y8RwJ8ycADXg32QnucWIMvCv844yU4IEMNpEx13Htc/0ffvmF4TWO3LfXvtGc9WUvvXc7zAvLlhbGQoqkXpxtysL7Y6Wg6upLcwFJV36ZXGzkjcwxyY7jnVGXAgwFo+8NvXOoG924bXFswKdcLmDeQEAnfvvh8s/AOzj+k562R8O0zPr9v/+XWU/TW+y+Pgb);lineShape=1;container=0;" vertex="1" parent="v08rIDwoiFzqt1NzFTo6-101">
          <mxGeometry x="6.996409694124907" width="18.015833888727386" height="34.269432984793816" as="geometry" />
        </mxCell>
        <mxCell id="v08rIDwoiFzqt1NzFTo6-92" value="" style="shape=stencil(lVbbUuMwDP2avGpsy7bsZxb+ozOUbWa7LVPKLvw9ClmHyJCzw1ua6FTXc6SBb54Ou8f9ENzT9XL+tf873l8PA/8YQhhPh/1lvOrTwLcD3zycL/ufl/Pz6X7+/bibLKen3+c/0z+8zDihWiZQcK/zC58o+fc3d7P9cTyt7EOiEgwgeMoAEAPFaj1UcrwNSJU49SEx8CCZUjaAQiFt21dP1Tpw5Bywj8Sxs6/IXuOx9lozZF+I2SYcyWcAqJQsQD34sA3wbsmwIVhakFsuxAKSI4+TyLYJ2VPCVap2LsThkCIV60EbHwoAhBbAAijkwSBVTdEOhmjnQEilkOuS1rqBRpRM0XrIjlgAIFG0/IyFpEJAsCFxJo899ITmVuivAUKuIzTD6dMqVTuuqf3DFj//BfzBN6QwlSn1fPaI/0tTlxKRIHtpFV8S9uQweYLvNRIqUu0rxEwMSqqAYkOKqdFpC+DsHCVVflRUaTVfJlXgWGhVO4BEEkRPptAJgDRh3gKw+w5AP4ttdImUQUi6eqqdPNUQJN263Kplm8qaAMA0+pZtK23+Oom2ChYPOr6Az7orO3tdJiBnpmy7oCqIZjVQ+FRTNKq+rY2VaiOJdP2y1blD2/bTZksFKqrr41FBzYA5qj0dNStFQBzdenaE2DfqbdSzWPEKuF+xeV+dU2gx536n+QyPi+8ehP+314eP6/NhPB7n43X9vb9W9dV86fLtGw==);lineShape=1;container=0;" vertex="1" parent="v08rIDwoiFzqt1NzFTo6-101">
          <mxGeometry y="15.425187947230711" width="23.834702374629117" height="4.49461109193854" as="geometry" />
        </mxCell>
        <mxCell id="v08rIDwoiFzqt1NzFTo6-137" value="“g after f”&lt;br style=&quot;font-size: 20px;&quot;&gt;" style="text;html=1;resizable=0;autosize=1;align=center;verticalAlign=middle;points=[];fillColor=none;strokeColor=none;rounded=0;fontSize=20;" vertex="1" parent="1">
          <mxGeometry x="282" y="460" width="100" height="30" as="geometry" />
        </mxCell>
        <mxCell id="v08rIDwoiFzqt1NzFTo6-138" value="" style="group" vertex="1" connectable="0" parent="1">
          <mxGeometry x="88" y="205.00180457542" width="516.1580758273114" height="59.33819542458002" as="geometry" />
        </mxCell>
        <mxCell id="v08rIDwoiFzqt1NzFTo6-39" value="" style="ellipse;whiteSpace=wrap;html=1;aspect=fixed;fillColor=#f8cecc;strokeColor=#b85450;container=0;" vertex="1" parent="v08rIDwoiFzqt1NzFTo6-138">
          <mxGeometry y="9.99819542457999" width="40" height="40" as="geometry" />
        </mxCell>
        <mxCell id="v08rIDwoiFzqt1NzFTo6-48" value="" style="ellipse;whiteSpace=wrap;html=1;aspect=fixed;fillColor=#d5e8d4;strokeColor=#82b366;container=0;" vertex="1" parent="v08rIDwoiFzqt1NzFTo6-138">
          <mxGeometry x="310" y="9.99819542457999" width="40" height="40" as="geometry" />
        </mxCell>
        <mxCell id="v08rIDwoiFzqt1NzFTo6-49" value="" style="ellipse;whiteSpace=wrap;html=1;aspect=fixed;fillColor=#f8cecc;strokeColor=#b85450;container=0;" vertex="1" parent="v08rIDwoiFzqt1NzFTo6-138">
          <mxGeometry x="452.22" y="11.218195424580017" width="40" height="40" as="geometry" />
        </mxCell>
        <mxCell id="v08rIDwoiFzqt1NzFTo6-55" value="" style="shape=stencil(lVjZctswDPwav2JA8MRzmv5HZuLUnrpxxnF6/H2heuiYkLQdv8kylsSxWILaxIf33dPbdiP8fj4dv29/7Z/Pu038shHZv+62p/3ZnjbxcRMfXo6n7bfT8eP1+fL77WmynJ5+HH9OK/y+4HKmpBNK+M/lTSCt/158vdgf9q839oWptsE+U07AvlGUcX2mHNcBNVHlEWBvdB3QAokDKBXgUiuUx5AlUQIuqe0wxiyNFLikqf/dATFSaQBQKY9Zig27pMRlAKRIgSGg5BHQiJFLSm3cIUt3chEQmInHQuTS11jeolEb81oCtQAAhWIdAVbLDABCPEZdAyUQRMvEYyFqoQTIVHMnZwc0pga4URLF0SXbU0DlsjVkHAFKEQCicWMEqHEDlNpaPo6lnioDRCDUzuYrQCG/Q/T8vmHLcuW8bNgOSAVMhYK3Z8A94/LIVWtBBdRjrxmKeTHrBdMERO2ZrFrNECuE2sgiE6kK4s1ekZSpoN70ram4XibSYQy4KWz+0EjE7yCgl+WqDTchB6CRk6q7GIQSyqklqfgiKCiyFB+0Gg9Rp6XeVze0C4im5rELunXmrqVVZ62ZUB2SlxcDKKiDnd9FZwCgqYXqrDUj8ChSVB9yBHUOxLPWRAGwPxOsaMgf9oeOsaKCeGUmv0ICWt84kXwjKCDRvfah+Fmh1c6q5QBmHGoRR8B+ZqsKz2U701yO7BxF8pi1O3AFSC/LMumqF2B7gw4QGwycAhcrG6BFjdTuGncMoCORMkM9mnZwM5upLMiS5UTGtNoYyXg6zw5wZe/a9OJEWGp3cu2+4Haw/kaT7XQhceM8HraTzm4wCfazTcrsGgjqy5TDcYPcFXDZ3iR9tLekofWLL3OEo4it7/wRmCCzV3b2iEU2P7qT2eZDQCLrfsdr7oq/mn9vjxotZX8gcB/Sl+2r72Q8ulgXBvH+IPurLnzaF+BPTr5eoSd4tQPuuZL/394ePu//L/vD4fL54PZ//73AXl2+NcTHvw==);lineShape=1;container=0;" vertex="1" parent="v08rIDwoiFzqt1NzFTo6-138">
          <mxGeometry x="493.7229853797147" width="22.435090447596735" height="57.89142370181298" as="geometry" />
        </mxCell>
        <mxCell id="v08rIDwoiFzqt1NzFTo6-41" value="" style="shape=stencil(lVbZbtswEPwavS54LLnkc5r+R4A4tVDXDhynx993BZWql5ImCOAH2Z4R95pZDvHh7fj0ehiCe7tdL98Pv8bn23GIX4YQxvPxcB1v+jTExyE+vFyuh2/Xy/v5ef7++jQhp6cfl5/TG37PvEo+TaTg/sw/CE3f9PN1hp/G8x3cVwrR4BN5gI+ZgjP4SJL28SmS8wYfqJZ9fK7kgsE7cm4fXxMlm6/XBBChkLMJh9yO3CZUSmIzrjBl75aQl5oyFYFHhGIIWgapgCDE1RCKlpUBQQOwIVUlgCSqp2T7poUTkEMRqtkScA6FKdlOay+rBwTft1rPTKBzUinakCRhQiHf9cE3Oe0S7DCx5oBD6uQWPXGESUe2811bkHtlDTZp74gRQSh3SVMAbdDJCNzhCx691AUUKCKFSvt7UWhoJrInn65tkfFw1+ZBS9t0VkGNlJDt6OUPTtDBsALVUSmIkFoAixrURVBZA+VOb9JGZbvPq81wZ1TbjEQ59kcIGtZALH0S0DQ+S8grSes4wv2jNrcyvn8C2V5wqbd7DckDH1M9Futjqiho3q2GC75APajXr2yPgcckCt1u4GY62xlTtAnrqCIP81TsZhDflssm3q38JbYId/DOxqN3CLQ9V9uWmRx8P6/cIoH6+B6vFRYgtGUTLzorsP7cK1/9kcH71W67/pIgO/3chfBDuD78v3u+jKfTfHW9/7+/q+pP8z03Pv4F);lineShape=1;container=0;" vertex="1" parent="v08rIDwoiFzqt1NzFTo6-138">
          <mxGeometry x="47.780866265228155" y="23.374015772984876" width="23.511079569515232" height="5.4940379345359815" as="geometry" />
        </mxCell>
        <mxCell id="v08rIDwoiFzqt1NzFTo6-42" value="" style="shape=stencil(rVZJbuMwEHyNrg02m+s5yfwjQJyxEMcOHGeW309rBCoiaVVgIDct1WQvVUUOcve+f3zbDda8X86nl93v8emyH+R+sHY87nfn8aJPgzwMcvd8Ou9+nk8fx6f5/e1xQk5Pr6df0wp/5jhmMm6Ksubv/MUQ5/8ffsz4w3hc4zNlqfCODG/jhUlihY+U4jbeOZJQ4dlQSNsBPrYFZBLZxselvs+Eot/GJ/2dKnygZLfxmSnkJh8bAN63+XAgQRtEylwFaAVwh0y+HoEzlEHJbAwZU0V4X8a+tQX7uqk6NZRTJK6LSFKyvB6gNGvaKnDO2ZCrd8ipNO76oAO5mnlaVQQ7JEuhYZ4vs79OvdxqQcllEVcD5UY8Hgd4inXRQUftbglwnhIYXJ+SKtwDffZFq4WggKmtNZfUoxgIoh9cLFzZZIZt8IgYPfVYyKENOnJbIQsE18tHAjFQwzWF6qDNLSYQdNBgDL3NxIwVqkZWG6U22qO+9k4Z4Q69Fa/68E0R/fGgnTNAED4UL11VIYAdTogbn3EUQdk2FStdbCNQBClxLHpZRpegCySSmkxRcwT4QKZz+wRsabkiLNwL5MH6ts0nYCZxu74X6ACmmOhiejoB4DCd2ARrx5STaXVCo3yYbL0+J0rAL2yrZXXIAPB6p6rn5aFXqJ/W6fMX7GmOEKywm2+cX+L14fN6+zweDvPteP2/vQ7rp/kqLQ//AA==);lineShape=1;container=0;" vertex="1" parent="v08rIDwoiFzqt1NzFTo6-138">
          <mxGeometry x="50.800432611605515" y="31.809056835411866" width="22.738498030139795" height="5.971235080892939" as="geometry" />
        </mxCell>
        <mxCell id="v08rIDwoiFzqt1NzFTo6-54" value="" style="shape=stencil(lVhJcttADHyNrqgZYDacHecfrrIcq6JILtnZfh8wyjAakGyXbxSFJpbpBkDu5O71+eFlv+Pw+nY5f93/PDy+Pe/k0475cHreXw5vdrWT+53cPZ0v+y+X8/fT4/X3y8NkOV19O/+YnvDriiuVuE4oDr//3SHJf298vtofD6cb+9yohsFeKbRt+1RI02AfhTRuA6RQjgOAA00/NwGRShsBiSIIiSuVMgIaSQGA5D0IUwEhsVAck5ZKASTNTHX0kCyrAD3oWCUrdFQAKFRGQA5UAUACiY6ATBkBck9xZpI9AlQp2d9jlUqG3LMUAw+AOge5TtZIbSxrzRQFACo150Epg3MoQnXkUpMuqFWABcBj0q31MqwCNJCO56CWFUhaE+UxB2VKgHxaScYqqZCApFV9zzCfCQgohkDBdY1MFZTJXCSXtSkIZV29grQRgy5gAQSXhKUFuGFlL+IBDfC7Lch0U4d1RKKQvYsKFNHCohsrReChNt+ZrEwQsOgbWrqotgCyOOoMcqi1t/cbNjFgk0mSHTfmfrteJe5MuFEEInjLXWG3mkMe7Jh4AUASEkrBh4T6t1V9qWpFCmq+M+nMri3J+aQz7N8TNx2g9Mm6FVJykqtwF7DneY02UpQDU1toFIVkBxejByg4B6OG55JCPXwYMM2gRTtGMyilPjXnkVIgW8Uk74aW7TNotPNi8DbYjTmTjvSuAneyaDUZQyrmAXTjaGR2AIaKM+KMKeQKmZH6sjPbM1xOol9mbFtp4PmLiWgbXwLxB98wbFEO4JC5a3e2D71HrdPOD6vpDjqA4MVsJUABRVtQR5raHbQ1WApuT48MVyWeh+XMa2qgRZpwslvT+7vHeomkx9vtQ6f5ur0NPnH2aBGblK/OHs3msuAEXi9MIertI4jH1nHOPn5AIXuXdJwLXXTr9s2vtpEyWi2CZxCWpNk7PthujnYds3cahu+2Uzzi7N/Ld4wn9/Vtq54fejd/394u/n8IeDocj9fvCLf/+w8Hduv60UHu/wA=);lineShape=1;container=0;" vertex="1" parent="v08rIDwoiFzqt1NzFTo6-138">
          <mxGeometry x="428.8122900018302" y="0.0689194405622402" width="20.555150882542875" height="59.268950545430016" as="geometry" />
        </mxCell>
        <mxCell id="v08rIDwoiFzqt1NzFTo6-60" value="" style="shape=stencil(7VnLbhsxDPwaXwlJlETpnLb/UaBJYzRNgiR9/X1nYWiz4toT9Fggt7WtscTHDEntQa+ebz8/Xh9SeH55evh2/ev45eX2oB8OKR3vb6+fji94OujHg17dPDxdf316+HH/5fT58fOycnn6/vBz+YffJ1wzSX1BpfDn9E3skk/ffDoB7o73W0CUkGZAlWiXAZZEHSBJbZcBNYuVGRAl18uAUqVXv0OIlwG5SXJHKtIDAcCGPAGSiuplgHbROAE0SCBuVcRhtkGrtEKOVL1bsWfNxEtlxHUFmDTiJcQhhRmQpSQS6Si9zV7CkUjgzHyk4dZKcgnJ111qwAZidEtiLr3hBgbQ4ZMVoNIZH4oPHJLPmA0mYZfeLNKtSzAPSORIHT9HD4gkvTuSeXckJZHuRbR6QGcAk7gTgUa81JsUnQF5/MV5QJfijC5SiMzEAEbO+Y1kisyv3ed3bNKICgCQnWwEyQyQpc+hBoOMMAihdvkNFYjE6rYycgByp8IEgNPKAtYSGwDIs1srsoW5NUicvWQrzS8BHOWsiTFSm5R5h1Yls5rV/Q6gCEvXWocTVwASmABKGwdYAZ26FWGy2YZNAp9HhCFcmy2Y1Yq6rN4IBgBfbA51Ry9AjKhiaedWErg8OovN+khKVvJK+cqPs+vDzuAwupsL651itEZDgESddRXVohP/RK/DLUtgbcbQq3V9os1bGTm5ro+82dudP1IRjki5vNuAAVB5zFugRPAg6skBlFZPdKe5+hgYOxL6Lhdko0kEgBMLSGBjO2RpjphRKgOkYeKGByzvEAdVD2gEYGP/zfpOiemlRWmc0RLNxbknSaw4+yEDxKwkymHIwoaYlRLfCQUKQiXCEnzEQMxKiJl8M4K0ZiUtD+3f8IbVffPzyEJMptQwuHpAYrT5V0CKO54p5ZkWCc6GQmOMqc21X0vQyA41+NZl2YGwoPaRBJuwJT7buqJshRY0S75xxp6sS7W1r14BkfY62CHOO5RExzxTP6pm7MCOtNb4zWzLmiN0U2W2IfHx4n1qG4D3qe1/mNrMt5HQ88CmNqjAfCSNI1su5bdTAYx5bLww9V5a7ovYZU/w0lcCzQ2ocZ6zrygt6dB7V0MBKITU6FaDE6ZOm5LY/TgCJWON2BJXNz1nOgyj4XYNMQ7JjpT216s2WqHzXtJx4rXzGX4+Hwb40N0b0vm/lDFQjPXgE7uMxegc/HrWSHZfft7QVayfPWqSyXmgYd6hgUYAE6lXGD4Tgs3ZaViiNR0A1wxD9AIDNO8jiJ4ypTc/VmHmKOyGxHz/H/mlDbzkS0PjF09l1KYVwBsZVCs3YixNO7Mhefq/JcPB18MFQLiGGcFfP/NL+vMvS9ht29tvV/Dw+m7m5nh3d3q1s/3dv8vBV6f3QPrxLw==);lineShape=1;container=0;" vertex="1" parent="v08rIDwoiFzqt1NzFTo6-138">
          <mxGeometry x="385.76" y="16.868195424579994" width="34.62" height="42.47" as="geometry" />
        </mxCell>
        <mxCell id="v08rIDwoiFzqt1NzFTo6-50" value="" style="shape=stencil(lVbZbtswEPwavS54LLnkc5r+R4A4tVDXDhynx993BZWql5ImCOAH2Z4R95pZDvHh7fj0ehiCe7tdL98Pv8bn23GIX4YQxvPxcB1v+jTExyE+vFyuh2/Xy/v5ef7++jQhp6cfl5/TG37PvEo+TaTg/sw/CE3f9PN1hp/G8x3cVwrR4BN5gI+ZgjP4SJL28SmS8wYfqJZ9fK7kgsE7cm4fXxMlm6/XBBChkLMJh9yO3CZUSmIzrjBl75aQl5oyFYFHhGIIWgapgCDE1RCKlpUBQQOwIVUlgCSqp2T7poUTkEMRqtkScA6FKdlOay+rBwTft1rPTKBzUinakCRhQiHf9cE3Oe0S7DCx5oBD6uQWPXGESUe2811bkHtlDTZp74gRQSh3SVMAbdDJCNzhCx691AUUKCKFSvt7UWhoJrInn65tkfFw1+ZBS9t0VkGNlJDt6OUPTtDBsALVUSmIkFoAixrURVBZA+VOb9JGZbvPq81wZ1TbjEQ59kcIGtZALH0S0DQ+S8grSes4wv2jNrcyvn8C2V5wqbd7DckDH1M9Futjqiho3q2GC75APajXr2yPgcckCt1u4GY62xlTtAnrqCIP81TsZhDflssm3q38JbYId/DOxqN3CLQ9V9uWmRx8P6/cIoH6+B6vFRYgtGUTLzorsP7cK1/9kcH71W67/pIgO/3chfBDuD78v3u+jKfTfHW9/7+/q+pP8z03Pv4F);lineShape=1;container=0;" vertex="1" parent="v08rIDwoiFzqt1NzFTo6-138">
          <mxGeometry x="360.0008662652282" y="24.594015772984903" width="23.511079569515232" height="5.4940379345359815" as="geometry" />
        </mxCell>
        <mxCell id="v08rIDwoiFzqt1NzFTo6-51" value="" style="shape=stencil(rVZJbuMwEHyNrg02m+s5yfwjQJyxEMcOHGeW309rBCoiaVVgIDct1WQvVUUOcve+f3zbDda8X86nl93v8emyH+R+sHY87nfn8aJPgzwMcvd8Ou9+nk8fx6f5/e1xQk5Pr6df0wp/5jhmMm6Ksubv/MUQ5/8ffsz4w3hc4zNlqfCODG/jhUlihY+U4jbeOZJQ4dlQSNsBPrYFZBLZxselvs+Eot/GJ/2dKnygZLfxmSnkJh8bAN63+XAgQRtEylwFaAVwh0y+HoEzlEHJbAwZU0V4X8a+tQX7uqk6NZRTJK6LSFKyvB6gNGvaKnDO2ZCrd8ipNO76oAO5mnlaVQQ7JEuhYZ4vs79OvdxqQcllEVcD5UY8Hgd4inXRQUftbglwnhIYXJ+SKtwDffZFq4WggKmtNZfUoxgIoh9cLFzZZIZt8IgYPfVYyKENOnJbIQsE18tHAjFQwzWF6qDNLSYQdNBgDL3NxIwVqkZWG6U22qO+9k4Z4Q69Fa/68E0R/fGgnTNAED4UL11VIYAdTogbn3EUQdk2FStdbCNQBClxLHpZRpegCySSmkxRcwT4QKZz+wRsabkiLNwL5MH6ts0nYCZxu74X6ACmmOhiejoB4DCd2ARrx5STaXVCo3yYbL0+J0rAL2yrZXXIAPB6p6rn5aFXqJ/W6fMX7GmOEKywm2+cX+L14fN6+zweDvPteP2/vQ7rp/kqLQ//AA==);lineShape=1;container=0;" vertex="1" parent="v08rIDwoiFzqt1NzFTo6-138">
          <mxGeometry x="363.02043261160554" y="33.02905683541189" width="22.738498030139795" height="5.971235080892939" as="geometry" />
        </mxCell>
        <mxCell id="v08rIDwoiFzqt1NzFTo6-136" value="" style="group" vertex="1" connectable="0" parent="v08rIDwoiFzqt1NzFTo6-138">
          <mxGeometry x="89.99543003156896" width="116.11264579574254" height="59.337869985992256" as="geometry" />
        </mxCell>
        <mxCell id="v08rIDwoiFzqt1NzFTo6-128" value="" style="ellipse;whiteSpace=wrap;html=1;aspect=fixed;fillColor=#dae8fc;strokeColor=#6c8ebf;container=0;" vertex="1" parent="v08rIDwoiFzqt1NzFTo6-136">
          <mxGeometry x="52.174569968431115" y="11.218195424580017" width="40" height="40" as="geometry" />
        </mxCell>
        <mxCell id="v08rIDwoiFzqt1NzFTo6-129" value="" style="shape=stencil(lVfLctswDPwaXTF8gzyn6X9kJk7tqWtnHKdt/j5QNZQFyNq2N8fhmlhgsQCH+PC2f3rdDcG9XS/n77tfh+frfohfhhAOp/3ucrjKpyE+DvHh5XzZfbuc30/P09+vT+PJ8dOP88/xF35PuOrJpREV3Mf0jfcU6p9vvk6A4+G0ALCnwgrQKJbt8zlTMRc48nkbkNIKkIgBIDKVogAhUGgAECh7BYiOOAGAo5w1QFj5bYDkxOsbkqMWAICpag6pUAEcBOCdAuRABdQtyO9FDaiQtABYky5SGYdD0hzYUcSkuWpAJkZpreQ1h+qo4jpEHVJtWBryezqklv4mjapDaoUCIi0hmf7hXpnNwhlApYrqEKg1DWhUQEhehKA5eOfIgSukI2O0VzQEcBSKBUSQ10ItWdLIZlIXziKrDrRD7LqZz2eYo9SjXegCuZiIwJwPsGiSDROPh7rzkUK0AAcS5JmyUfYs3fsy8t2xljcgS5LmbRYAhVpt/0uSkIpGH151Z0CjQSJelZkBabnBAsTVkK1yt+mFUBOyVVGSNu6xE1BaZVyu2rkBDj6v0tq6I9wHeDveBJB5G8D9/gVnBs2TV+IWMaIqUDPxFPLg9+V8+Z/zwdZMpkJGNbMVkLHTQH6CFREXckCm3k4pGZwZFEy2FS0hmcwMen9euBajv8DzbrVbJBiP4SvLSwB9vFqnZDsKSNGU9ASMiRLUj9fmK/aK8i+jRTeMb3C9kw5zZmDKSomcTsaNjoh7iPcJlJ7vmQE14ELZWVNxkEARxtmcR/O+5m5Rt3hQwcSWk+ab+oX3zxer6AQda/RYo2g8XWc/mzsGGtZi/7kVDG2mcgHrYVk7oy0CbPaD/uq5f57t5isbVQKKkAo0zVhc3oOel9FrSiyAgpqmdQ9fABrIUS12eo8AQLpG69MCQGUbH7OrkNBj9h9ev/Lh9nZ+ORyP09N7+X/71pavpnd6fPwE);lineShape=1;container=0;" vertex="1" parent="v08rIDwoiFzqt1NzFTo6-136">
          <mxGeometry x="5.416139413855262" y="4.0554391609980485" width="17.96102786198901" height="53.24276423623746" as="geometry" />
        </mxCell>
        <mxCell id="v08rIDwoiFzqt1NzFTo6-130" value="" style="shape=stencil(rVbLctswDPwaXTEgwQd4TtL/yEycWhPHzjju6+8LV5Vikta2nslNphYWsFgsMcjd+/bxbTN4fj8dDy+bH+PTaTvI/eD9uN9ujuPJngZ5GOTu+XDcfD0evu2fpt9vj2fk+en18P38Dz+nOMck6Rzl+dd0EknLn4MvE3437i/w3lN2FT5RCuv4wJRihRdyuo6PSqXOx5FL63hVilLhmZjX8cWT5wrvKXmAjxS0zofJAYKKEof6A44KYKgUSnVGkmBKjpcSl55ZV1DRpS06GW0oIJMvVYB6kgwCAoW6zUa0oqpdW4MRpwIa3aVkVf2V4vUAaZVqvRQgPeVZyUvRiQSwlJWkTikLBdC5nNs+mNwZiKkPCCYmUHSfks1nvKloJ1BLPa0BqrXvG88H/ykMM4CblJehYfTSdhk6WD884uDwXJnPkKGQegtIAqXam4w1nhFLnY1pIQVC6n3SiBPQt96IL3j4pIhYrphGAaZht4/GrgrQbLsNXBOQyEfAE6mv8YEcGlAKTQWeIkgokms8CTu3zMNyYdweXSat8nKAQmKKdb0pzCcr+PaqMn5Ax3j++jI6ZqlAdty6kQh5wOdin4s/yrxwrPAZm+s/wes/Umo1DSc5z/r9WKcUwG9d1/6Nt4eP3fB53O2m1fLyfbtL2tG0h8rDbw==);lineShape=1;container=0;" vertex="1" parent="v08rIDwoiFzqt1NzFTo6-136">
          <mxGeometry y="24.743434684379736" width="21.552043628566366" height="4.949881503497636" as="geometry" />
        </mxCell>
        <mxCell id="v08rIDwoiFzqt1NzFTo6-131" value="" style="shape=stencil(lVhJcttADHyNrqgZYDacHecfrrIcq6JILtnZfh8wyjAakGyXbxSFJpbpBkDu5O71+eFlv+Pw+nY5f93/PDy+Pe/k0475cHreXw5vdrWT+53cPZ0v+y+X8/fT4/X3y8NkOV19O/+YnvDriiuVuE4oDr//3SHJf298vtofD6cb+9yohsFeKbRt+1RI02AfhTRuA6RQjgOAA00/NwGRShsBiSIIiSuVMgIaSQGA5D0IUwEhsVAck5ZKASTNTHX0kCyrAD3oWCUrdFQAKFRGQA5UAUACiY6ATBkBck9xZpI9AlQp2d9jlUqG3LMUAw+AOge5TtZIbSxrzRQFACo150Epg3MoQnXkUpMuqFWABcBj0q31MqwCNJCO56CWFUhaE+UxB2VKgHxaScYqqZCApFV9zzCfCQgohkDBdY1MFZTJXCSXtSkIZV29grQRgy5gAQSXhKUFuGFlL+IBDfC7Lch0U4d1RKKQvYsKFNHCohsrReChNt+ZrEwQsOgbWrqotgCyOOoMcqi1t/cbNjFgk0mSHTfmfrteJe5MuFEEInjLXWG3mkMe7Jh4AUASEkrBh4T6t1V9qWpFCmq+M+nMri3J+aQz7N8TNx2g9Mm6FVJykqtwF7DneY02UpQDU1toFIVkBxejByg4B6OG55JCPXwYMM2gRTtGMyilPjXnkVIgW8Uk74aW7TNotPNi8DbYjTmTjvSuAneyaDUZQyrmAXTjaGR2AIaKM+KMKeQKmZH6sjPbM1xOol9mbFtp4PmLiWgbXwLxB98wbFEO4JC5a3e2D71HrdPOD6vpDjqA4MVsJUABRVtQR5raHbQ1WApuT48MVyWeh+XMa2qgRZpwslvT+7vHeomkx9vtQ6f5ur0NPnH2aBGblK/OHs3msuAEXi9MIertI4jH1nHOPn5AIXuXdJwLXXTr9s2vtpEyWi2CZxCWpNk7PthujnYds3cahu+2Uzzi7N/Ld4wn9/Vtq54fejd/394u/n8IeDocj9fvCLf/+w8Hduv60UHu/wA=);lineShape=1;container=0;" vertex="1" parent="v08rIDwoiFzqt1NzFTo6-136">
          <mxGeometry x="28.766859970261294" y="0.0689194405622402" width="20.555150882542875" height="59.268950545430016" as="geometry" />
        </mxCell>
        <mxCell id="v08rIDwoiFzqt1NzFTo6-132" value="" style="shape=stencil(lVjZctswDPwav2JA8MRzmv5HZuLUnrpxxnF6/H2heuiYkLQdv8kylsSxWILaxIf33dPbdiP8fj4dv29/7Z/Pu038shHZv+62p/3ZnjbxcRMfXo6n7bfT8eP1+fL77WmynJ5+HH9OK/y+4HKmpBNK+M/lTSCt/158vdgf9q839oWptsE+U07AvlGUcX2mHNcBNVHlEWBvdB3QAokDKBXgUiuUx5AlUQIuqe0wxiyNFLikqf/dATFSaQBQKY9Zig27pMRlAKRIgSGg5BHQiJFLSm3cIUt3chEQmInHQuTS11jeolEb81oCtQAAhWIdAVbLDABCPEZdAyUQRMvEYyFqoQTIVHMnZwc0pga4URLF0SXbU0DlsjVkHAFKEQCicWMEqHEDlNpaPo6lnioDRCDUzuYrQCG/Q/T8vmHLcuW8bNgOSAVMhYK3Z8A94/LIVWtBBdRjrxmKeTHrBdMERO2ZrFrNECuE2sgiE6kK4s1ekZSpoN70ram4XibSYQy4KWz+0EjE7yCgl+WqDTchB6CRk6q7GIQSyqklqfgiKCiyFB+0Gg9Rp6XeVze0C4im5rELunXmrqVVZ62ZUB2SlxcDKKiDnd9FZwCgqYXqrDUj8ChSVB9yBHUOxLPWRAGwPxOsaMgf9oeOsaKCeGUmv0ICWt84kXwjKCDRvfah+Fmh1c6q5QBmHGoRR8B+ZqsKz2U701yO7BxF8pi1O3AFSC/LMumqF2B7gw4QGwycAhcrG6BFjdTuGncMoCORMkM9mnZwM5upLMiS5UTGtNoYyXg6zw5wZe/a9OJEWGp3cu2+4Haw/kaT7XQhceM8HraTzm4wCfazTcrsGgjqy5TDcYPcFXDZ3iR9tLekofWLL3OEo4it7/wRmCCzV3b2iEU2P7qT2eZDQCLrfsdr7oq/mn9vjxotZX8gcB/Sl+2r72Q8ulgXBvH+IPurLnzaF+BPTr5eoSd4tQPuuZL/394ePu//L/vD4fL54PZ//73AXl2+NcTHvw==);lineShape=1;container=0;" vertex="1" parent="v08rIDwoiFzqt1NzFTo6-136">
          <mxGeometry x="93.6775553481458" width="22.435090447596735" height="57.89142370181298" as="geometry" />
        </mxCell>
        <mxCell id="v08rIDwoiFzqt1NzFTo6-139" value="" style="group" vertex="1" connectable="0" parent="1">
          <mxGeometry x="34" y="525" width="652.7880758273114" height="69.74000000000001" as="geometry" />
        </mxCell>
        <mxCell id="v08rIDwoiFzqt1NzFTo6-124" value="" style="group" vertex="1" connectable="0" parent="v08rIDwoiFzqt1NzFTo6-139">
          <mxGeometry x="390" y="20" width="25.76" height="20" as="geometry" />
        </mxCell>
        <mxCell id="v08rIDwoiFzqt1NzFTo6-125" value="" style="shape=stencil(lVbZbtswEPwavS54LLnkc5r+R4A4tVDXDhynx993BZWql5ImCOAH2Z4R95pZDvHh7fj0ehiCe7tdL98Pv8bn23GIX4YQxvPxcB1v+jTExyE+vFyuh2/Xy/v5ef7++jQhp6cfl5/TG37PvEo+TaTg/sw/CE3f9PN1hp/G8x3cVwrR4BN5gI+ZgjP4SJL28SmS8wYfqJZ9fK7kgsE7cm4fXxMlm6/XBBChkLMJh9yO3CZUSmIzrjBl75aQl5oyFYFHhGIIWgapgCDE1RCKlpUBQQOwIVUlgCSqp2T7poUTkEMRqtkScA6FKdlOay+rBwTft1rPTKBzUinakCRhQiHf9cE3Oe0S7DCx5oBD6uQWPXGESUe2811bkHtlDTZp74gRQSh3SVMAbdDJCNzhCx691AUUKCKFSvt7UWhoJrInn65tkfFw1+ZBS9t0VkGNlJDt6OUPTtDBsALVUSmIkFoAixrURVBZA+VOb9JGZbvPq81wZ1TbjEQ59kcIGtZALH0S0DQ+S8grSes4wv2jNrcyvn8C2V5wqbd7DckDH1M9Futjqiho3q2GC75APajXr2yPgcckCt1u4GY62xlTtAnrqCIP81TsZhDflssm3q38JbYId/DOxqN3CLQ9V9uWmRx8P6/cIoH6+B6vFRYgtGUTLzorsP7cK1/9kcH71W67/pIgO/3chfBDuD78v3u+jKfTfHW9/7+/q+pP8z03Pv4F);lineShape=1;" vertex="1" parent="v08rIDwoiFzqt1NzFTo6-124">
          <mxGeometry width="23.512846340381884" height="7.627283941913777" as="geometry" />
        </mxCell>
        <mxCell id="v08rIDwoiFzqt1NzFTo6-126" value="" style="shape=stencil(rVZJbuMwEHyNrg02m+s5yfwjQJyxEMcOHGeW309rBCoiaVVgIDct1WQvVUUOcve+f3zbDda8X86nl93v8emyH+R+sHY87nfn8aJPgzwMcvd8Ou9+nk8fx6f5/e1xQk5Pr6df0wp/5jhmMm6Ksubv/MUQ5/8ffsz4w3hc4zNlqfCODG/jhUlihY+U4jbeOZJQ4dlQSNsBPrYFZBLZxselvs+Eot/GJ/2dKnygZLfxmSnkJh8bAN63+XAgQRtEylwFaAVwh0y+HoEzlEHJbAwZU0V4X8a+tQX7uqk6NZRTJK6LSFKyvB6gNGvaKnDO2ZCrd8ipNO76oAO5mnlaVQQ7JEuhYZ4vs79OvdxqQcllEVcD5UY8Hgd4inXRQUftbglwnhIYXJ+SKtwDffZFq4WggKmtNZfUoxgIoh9cLFzZZIZt8IgYPfVYyKENOnJbIQsE18tHAjFQwzWF6qDNLSYQdNBgDL3NxIwVqkZWG6U22qO+9k4Z4Q69Fa/68E0R/fGgnTNAED4UL11VIYAdTogbn3EUQdk2FStdbCNQBClxLHpZRpegCySSmkxRcwT4QKZz+wRsabkiLNwL5MH6ts0nYCZxu74X6ACmmOhiejoB4DCd2ARrx5STaXVCo3yYbL0+J0rAL2yrZXXIAPB6p6rn5aFXqJ/W6fMX7GmOEKywm2+cX+L14fN6+zweDvPteP2/vQ7rp/kqLQ//AA==);lineShape=1;" vertex="1" parent="v08rIDwoiFzqt1NzFTo6-124">
          <mxGeometry x="3.019793255645177" y="11.710230983373519" width="22.740206744354825" height="8.28976901662648" as="geometry" />
        </mxCell>
        <mxCell id="v08rIDwoiFzqt1NzFTo6-118" value="" style="group" vertex="1" connectable="0" parent="v08rIDwoiFzqt1NzFTo6-139">
          <mxGeometry x="450" y="0.0007240159823140857" width="63.60744088437309" height="59.26927598401778" as="geometry" />
        </mxCell>
        <mxCell id="v08rIDwoiFzqt1NzFTo6-119" value="" style="shape=stencil(lVhJcttADHyNrqgZYDacHecfrrIcq6JILtnZfh8wyjAakGyXbxSFJpbpBkDu5O71+eFlv+Pw+nY5f93/PDy+Pe/k0475cHreXw5vdrWT+53cPZ0v+y+X8/fT4/X3y8NkOV19O/+YnvDriiuVuE4oDr//3SHJf298vtofD6cb+9yohsFeKbRt+1RI02AfhTRuA6RQjgOAA00/NwGRShsBiSIIiSuVMgIaSQGA5D0IUwEhsVAck5ZKASTNTHX0kCyrAD3oWCUrdFQAKFRGQA5UAUACiY6ATBkBck9xZpI9AlQp2d9jlUqG3LMUAw+AOge5TtZIbSxrzRQFACo150Epg3MoQnXkUpMuqFWABcBj0q31MqwCNJCO56CWFUhaE+UxB2VKgHxaScYqqZCApFV9zzCfCQgohkDBdY1MFZTJXCSXtSkIZV29grQRgy5gAQSXhKUFuGFlL+IBDfC7Lch0U4d1RKKQvYsKFNHCohsrReChNt+ZrEwQsOgbWrqotgCyOOoMcqi1t/cbNjFgk0mSHTfmfrteJe5MuFEEInjLXWG3mkMe7Jh4AUASEkrBh4T6t1V9qWpFCmq+M+nMri3J+aQz7N8TNx2g9Mm6FVJykqtwF7DneY02UpQDU1toFIVkBxejByg4B6OG55JCPXwYMM2gRTtGMyilPjXnkVIgW8Uk74aW7TNotPNi8DbYjTmTjvSuAneyaDUZQyrmAXTjaGR2AIaKM+KMKeQKmZH6sjPbM1xOol9mbFtp4PmLiWgbXwLxB98wbFEO4JC5a3e2D71HrdPOD6vpDjqA4MVsJUABRVtQR5raHbQ1WApuT48MVyWeh+XMa2qgRZpwslvT+7vHeomkx9vtQ6f5ur0NPnH2aBGblK/OHs3msuAEXi9MIertI4jH1nHOPn5AIXuXdJwLXXTr9s2vtpEyWi2CZxCWpNk7PthujnYds3cahu+2Uzzi7N/Ld4wn9/Vtq54fejd/394u/n8IeDocj9fvCLf/+w8Hduv60UHu/wA=);lineShape=1;" vertex="1" parent="v08rIDwoiFzqt1NzFTo6-118">
          <mxGeometry x="43.052290001830215" width="20.555150882542875" height="59.268950545430016" as="geometry" />
        </mxCell>
        <mxCell id="v08rIDwoiFzqt1NzFTo6-120" value="" style="shape=stencil(7VnLbhsxDPwaXwlJlETpnLb/UaBJYzRNgiR9/X1nYWiz4toT9Fggt7WtscTHDEntQa+ebz8/Xh9SeH55evh2/ev45eX2oB8OKR3vb6+fji94OujHg17dPDxdf316+HH/5fT58fOycnn6/vBz+YffJ1wzSX1BpfDn9E3skk/ffDoB7o73W0CUkGZAlWiXAZZEHSBJbZcBNYuVGRAl18uAUqVXv0OIlwG5SXJHKtIDAcCGPAGSiuplgHbROAE0SCBuVcRhtkGrtEKOVL1bsWfNxEtlxHUFmDTiJcQhhRmQpSQS6Si9zV7CkUjgzHyk4dZKcgnJ111qwAZidEtiLr3hBgbQ4ZMVoNIZH4oPHJLPmA0mYZfeLNKtSzAPSORIHT9HD4gkvTuSeXckJZHuRbR6QGcAk7gTgUa81JsUnQF5/MV5QJfijC5SiMzEAEbO+Y1kisyv3ed3bNKICgCQnWwEyQyQpc+hBoOMMAihdvkNFYjE6rYycgByp8IEgNPKAtYSGwDIs1srsoW5NUicvWQrzS8BHOWsiTFSm5R5h1Yls5rV/Q6gCEvXWocTVwASmABKGwdYAZ26FWGy2YZNAp9HhCFcmy2Y1Yq6rN4IBgBfbA51Ry9AjKhiaedWErg8OovN+khKVvJK+cqPs+vDzuAwupsL651itEZDgESddRXVohP/RK/DLUtgbcbQq3V9os1bGTm5ro+82dudP1IRjki5vNuAAVB5zFugRPAg6skBlFZPdKe5+hgYOxL6Lhdko0kEgBMLSGBjO2RpjphRKgOkYeKGByzvEAdVD2gEYGP/zfpOiemlRWmc0RLNxbknSaw4+yEDxKwkymHIwoaYlRLfCQUKQiXCEnzEQMxKiJl8M4K0ZiUtD+3f8IbVffPzyEJMptQwuHpAYrT5V0CKO54p5ZkWCc6GQmOMqc21X0vQyA41+NZl2YGwoPaRBJuwJT7buqJshRY0S75xxp6sS7W1r14BkfY62CHOO5RExzxTP6pm7MCOtNb4zWzLmiN0U2W2IfHx4n1qG4D3qe1/mNrMt5HQ88CmNqjAfCSNI1su5bdTAYx5bLww9V5a7ovYZU/w0lcCzQ2ocZ6zrygt6dB7V0MBKITU6FaDE6ZOm5LY/TgCJWON2BJXNz1nOgyj4XYNMQ7JjpT216s2WqHzXtJx4rXzGX4+Hwb40N0b0vm/lDFQjPXgE7uMxegc/HrWSHZfft7QVayfPWqSyXmgYd6hgUYAE6lXGD4Tgs3ZaViiNR0A1wxD9AIDNO8jiJ4ypTc/VmHmKOyGxHz/H/mlDbzkS0PjF09l1KYVwBsZVCs3YixNO7Mhefq/JcPB18MFQLiGGcFfP/NL+vMvS9ht29tvV/Dw+m7m5nh3d3q1s/3dv8vBV6f3QPrxLw==);lineShape=1;" vertex="1" parent="v08rIDwoiFzqt1NzFTo6-118">
          <mxGeometry y="16.799275984017754" width="34.62" height="42.47" as="geometry" />
        </mxCell>
        <mxCell id="v08rIDwoiFzqt1NzFTo6-121" value="" style="shape=stencil(lVjZctswDPwav2JA8MRzmv5HZuLUnrpxxnF6/H2heuiYkLQdv8kylsSxWILaxIf33dPbdiP8fj4dv29/7Z/Pu038shHZv+62p/3ZnjbxcRMfXo6n7bfT8eP1+fL77WmynJ5+HH9OK/y+4HKmpBNK+M/lTSCt/158vdgf9q839oWptsE+U07AvlGUcX2mHNcBNVHlEWBvdB3QAokDKBXgUiuUx5AlUQIuqe0wxiyNFLikqf/dATFSaQBQKY9Zig27pMRlAKRIgSGg5BHQiJFLSm3cIUt3chEQmInHQuTS11jeolEb81oCtQAAhWIdAVbLDABCPEZdAyUQRMvEYyFqoQTIVHMnZwc0pga4URLF0SXbU0DlsjVkHAFKEQCicWMEqHEDlNpaPo6lnioDRCDUzuYrQCG/Q/T8vmHLcuW8bNgOSAVMhYK3Z8A94/LIVWtBBdRjrxmKeTHrBdMERO2ZrFrNECuE2sgiE6kK4s1ekZSpoN70ram4XibSYQy4KWz+0EjE7yCgl+WqDTchB6CRk6q7GIQSyqklqfgiKCiyFB+0Gg9Rp6XeVze0C4im5rELunXmrqVVZ62ZUB2SlxcDKKiDnd9FZwCgqYXqrDUj8ChSVB9yBHUOxLPWRAGwPxOsaMgf9oeOsaKCeGUmv0ICWt84kXwjKCDRvfah+Fmh1c6q5QBmHGoRR8B+ZqsKz2U701yO7BxF8pi1O3AFSC/LMumqF2B7gw4QGwycAhcrG6BFjdTuGncMoCORMkM9mnZwM5upLMiS5UTGtNoYyXg6zw5wZe/a9OJEWGp3cu2+4Haw/kaT7XQhceM8HraTzm4wCfazTcrsGgjqy5TDcYPcFXDZ3iR9tLekofWLL3OEo4it7/wRmCCzV3b2iEU2P7qT2eZDQCLrfsdr7oq/mn9vjxotZX8gcB/Sl+2r72Q8ulgXBvH+IPurLnzaF+BPTr5eoSd4tQPuuZL/394ePu//L/vD4fL54PZ//73AXl2+NcTHvw==);lineShape=1;" vertex="1" parent="v08rIDwoiFzqt1NzFTo6-139">
          <mxGeometry x="630.3529853797147" y="1.3818045754200057" width="22.435090447596735" height="57.89142370181298" as="geometry" />
        </mxCell>
        <mxCell id="v08rIDwoiFzqt1NzFTo6-70" value="" style="ellipse;whiteSpace=wrap;html=1;aspect=fixed;fillColor=#d5e8d4;strokeColor=#82b366;" vertex="1" parent="v08rIDwoiFzqt1NzFTo6-139">
          <mxGeometry y="14.212931998894192" width="39.99933817892479" height="39.99933817892479" as="geometry" />
        </mxCell>
        <mxCell id="v08rIDwoiFzqt1NzFTo6-71" value="" style="shape=stencil(lVbZbtswEPwavS54LLnkc5r+R4A4tVDXDhynx993BZWql5ImCOAH2Z4R95pZDvHh7fj0ehiCe7tdL98Pv8bn23GIX4YQxvPxcB1v+jTExyE+vFyuh2/Xy/v5ef7++jQhp6cfl5/TG37PvEo+TaTg/sw/CE3f9PN1hp/G8x3cVwrR4BN5gI+ZgjP4SJL28SmS8wYfqJZ9fK7kgsE7cm4fXxMlm6/XBBChkLMJh9yO3CZUSmIzrjBl75aQl5oyFYFHhGIIWgapgCDE1RCKlpUBQQOwIVUlgCSqp2T7poUTkEMRqtkScA6FKdlOay+rBwTft1rPTKBzUinakCRhQiHf9cE3Oe0S7DCx5oBD6uQWPXGESUe2811bkHtlDTZp74gRQSh3SVMAbdDJCNzhCx691AUUKCKFSvt7UWhoJrInn65tkfFw1+ZBS9t0VkGNlJDt6OUPTtDBsALVUSmIkFoAixrURVBZA+VOb9JGZbvPq81wZ1TbjEQ59kcIGtZALH0S0DQ+S8grSes4wv2jNrcyvn8C2V5wqbd7DckDH1M9Futjqiho3q2GC75APajXr2yPgcckCt1u4GY62xlTtAnrqCIP81TsZhDflssm3q38JbYId/DOxqN3CLQ9V9uWmRx8P6/cIoH6+B6vFRYgtGUTLzorsP7cK1/9kcH71W67/pIgO/3chfBDuD78v3u+jKfTfHW9/7+/q+pP8z03Pv4F);lineShape=1;" vertex="1" parent="v08rIDwoiFzqt1NzFTo6-139">
          <mxGeometry x="70.00054403624966" y="24.74857802660017" width="23.51097134298093" height="5.493947032783654" as="geometry" />
        </mxCell>
        <mxCell id="v08rIDwoiFzqt1NzFTo6-72" value="" style="shape=stencil(rVZJbuMwEHyNrg02m+s5yfwjQJyxEMcOHGeW309rBCoiaVVgIDct1WQvVUUOcve+f3zbDda8X86nl93v8emyH+R+sHY87nfn8aJPgzwMcvd8Ou9+nk8fx6f5/e1xQk5Pr6df0wp/5jhmMm6Ksubv/MUQ5/8ffsz4w3hc4zNlqfCODG/jhUlihY+U4jbeOZJQ4dlQSNsBPrYFZBLZxselvs+Eot/GJ/2dKnygZLfxmSnkJh8bAN63+XAgQRtEylwFaAVwh0y+HoEzlEHJbAwZU0V4X8a+tQX7uqk6NZRTJK6LSFKyvB6gNGvaKnDO2ZCrd8ipNO76oAO5mnlaVQQ7JEuhYZ4vs79OvdxqQcllEVcD5UY8Hgd4inXRQUftbglwnhIYXJ+SKtwDffZFq4WggKmtNZfUoxgIoh9cLFzZZIZt8IgYPfVYyKENOnJbIQsE18tHAjFQwzWF6qDNLSYQdNBgDL3NxIwVqkZWG6U22qO+9k4Z4Q69Fa/68E0R/fGgnTNAED4UL11VIYAdTogbn3EUQdk2FStdbCNQBClxLHpZRpegCySSmkxRcwT4QKZz+wRsabkiLNwL5MH6ts0nYCZxu74X6ACmmOhiejoB4DCd2ARrx5STaXVCo3yYbL0+J0rAL2yrZXXIAPB6p6rn5aFXqJ/W6fMX7GmOEKywm2+cX+L14fN6+zweDvPteP2/vQ7rp/kqLQ//AA==);lineShape=1;" vertex="1" parent="v08rIDwoiFzqt1NzFTo6-139">
          <mxGeometry x="73.02009648291647" y="33.18347952682859" width="22.738393359963773" height="5.971136283662399" as="geometry" />
        </mxCell>
        <mxCell id="v08rIDwoiFzqt1NzFTo6-76" value="" style="shape=stencil(lVjLctswDPwaXTEEQRLkOU3/IzNxak/dOOO4r78vVA9VE7K2k5vicAWAu1iCmuThff/0tptieL+cT193Pw/Pl/0kn6YYD6/73flwsadJHid5eDmdd1/Op++vz9e/357mlfPTt9OP+Q2/rrgWSNuMiuH39ZdCtf794fN1/fHwerO+MuU8rFeSsL1eA9Xx/Y1K2V5fmLQM61mo5m1ATiQ8ApQabwOSkuoAiJECAgQqdQQUUlCzJMphAAiOIIF4rEEsybQNmEkaWUhCTQEgU0wDIFtMsK0G4LHonKk1AFDKTkhMBUQQpjBGKIoB2fOgQhEUndjvklYSAYBGNQ6AGimCbiihC2EBFGJAnEbKo/hqowiKrqnzuvQPTqmacsaim8CiLQFxHZqoYICOam2FAgJUT1zTHvM+oFByEWrft/sAIZYR0CiBbdVG3DyggRo0UwgrADAyM762ipCBNGb1B1+0Atco1qLqtxXtUpGe8Q1xMQJAInYppd4hWyllF0G6F94HVIouQuzc399W7sa4ALDNGHGupw0goAaThieOKQHiTHxVfA0BFG3ybskDGjKBukopdXvebFHHw8LMFsBrqeCUlKJLyagExNXVOW39ENEuBT9ptAbFp8UbGYcAidDFSm9CKHABk2tJHoCs78OArJRWRER0ZvFKfUwNaMMGsOQOOYX65upbrjIcyZh9BF2O7vu7RGlUa7Ec0axBZdyjEqEXB+/ducD2CX72STgf9md0itC5s+fYRhs0dPNqzDAS0Zgxj8AjZVGg7Cwldw0w1gM4S0S8KGxOT3gYa67XSEDNmft8upDWVbJ1uAU31hOj87l1u+rrAx7Eqj+esbe01Xgb4B3ADsrUfD7A7czQXRPYNQWtt9nA3ZNgD5idu4ubNT3gd3ZOJzl40bvx5qULYJNZAFfwcqJsFaBeQAG9X/0BlftFcYuANBpvwfmIF1yhgvL54M38/+vt4d9ngJfD8Xj9inD7f//ZwH66fnKQxz8=);lineShape=1;" vertex="1" parent="v08rIDwoiFzqt1NzFTo6-139">
          <mxGeometry x="110.62286324024285" width="21.60213935400376" height="64.37199772845474" as="geometry" />
        </mxCell>
        <mxCell id="v08rIDwoiFzqt1NzFTo6-77" value="" style="shape=stencil(lVjLbhsxDPwaXwlJFCnpnKb/ESBObdS1A8fp4+/L7UL2iutMkZu9y5FIajikdsMPb7un1+0mhbfL+fR9+2v/fNlt+Msmpf1xtz3vL/Zrw48bfng5nbffzqf34/P8//Vpspx+/Tj9nFb4PeOUSfKESuHP/CQQp38Pvs72h/1xYV8ChdE+kjCwb379TArsa6aig32l1D62b4FyGf1higEAMnEcAaUvcR9gr0dASpQzAFjIDlApgpzGYEkNA4IzCUDYFpnHrAZqIK0WRJMRUCigqJV0BEgijQAgFMaoxRKHYkgU2wBQeyKAGoVqHQHmZAWA2JPYASVSBjsUpjTuUJQEAKx60pgl21MBwJLo6FqVAoghx07/K6D1NNwFcOzn2gGNiRWwz9I6ZqnVzvj7AOlJvAIa1IyYSIIHVEQ+H7PZNyAC2nmzsFdgz76iLeIG/InEbn0rJ6AAgZKLFxM1rI5MiEE1W62PNDVRC8CfRHVUC6s9pBbi1WWqVSTaq/ONVBAh7DWvACCAaF2hrDwCJ2ykdipvVRCQS62X4SKnSI0M0FzQAsXFAOp2UCoohtrbzIKm6Jij9jJc1EFALnHv3QtAAQcdbThw3fbWu+5LKkX1O1SwQ6a0sk8oBN/XLEcMxMvGBXcI5iG0D6tTLrCUxRE1Q1akPhkseJqAFH3W3o64uA6FByoTR3EAoYgajmnPSKKpB4IdMvv+UWw+AjFMTXMkRcF6p8HHoA32QBsknKKqYFonD5AGJa+IL2bBjb8U30QEjxaWRB0lLyuep0JXxMUQiaYdAzi5sLNXkFYDuMZsrR2p8BTD6NJNEO4D1OuLyWxBAPa9zVQTCYDW3pmugOs48NFM6NJaSEA5GA/cBkoJkFusHB2TqIIAhH33F7y+TQvj9JUhK8ze9QSGbW2yj84eldp07xj9SZTQ8ML++hX7g/v2uRfu7QbckD/X47nZZ+RP8VIR4G3QhKSqs0f50ej5E+DN7rM3/v/b24/b54WX/eEwf51YvvefI+zR/CmDH/8C);lineShape=1;" vertex="1" parent="v08rIDwoiFzqt1NzFTo6-139">
          <mxGeometry x="228.08663917058243" y="0.004423910008767962" width="28.122826191873084" height="67.37080109454331" as="geometry" />
        </mxCell>
        <mxCell id="v08rIDwoiFzqt1NzFTo6-78" value="" style="ellipse;whiteSpace=wrap;html=1;aspect=fixed;fillColor=#dae8fc;strokeColor=#6c8ebf;" vertex="1" parent="v08rIDwoiFzqt1NzFTo6-139">
          <mxGeometry x="289.9986650678947" y="16.172899569661467" width="39.99933817892479" height="39.99933817892479" as="geometry" />
        </mxCell>
        <mxCell id="v08rIDwoiFzqt1NzFTo6-79" value="" style="shape=stencil(lVfbbtswDP2avBISKVHSc9f9R4Gma7AsKdJ2l78fvUCuRcdn6Jtj84Tk4X0nd6/PDy/7HYfXt8v5+/7X4fHteSdfdsyH0/P+cnizp53c7+Tu6XzZf7uc30+P198vD5Pk9PTj/HP6h99XnArlMKE4/Lm+yVTbvxdfr/LHw2khnzOVPMgX0rwtn5SkDvKRiRUAIoXRoKjU0jZAMnEbAMyUgAaJpGUEmA9AAzfKMgCESQMAVNI4AgoVpKF20jsgCUWgQQKFUUNqnbctpyWNcU5UQKBFvEm5UUEaKmUeAJqIGaZGGE3SSgICl5XqmEsFs6StGzADGgnI1hqJx+yuGWqohaKOAKMBaGiWzGPgmlUgcLo1iqNJLZHWbUAMwVdQy7CCTIWMTrRCHAGgkDgNOHJmsgu16eQCeG3U2AOqAEAmGYt6wcNtRKCqXkUBoSur9JtiAxLcsrOKpykCmgpTcABLF0BTiT0VFqFWUNWmobrIJUrI6VV3tXwVZFJdscSUUaiFOHhARKEuvXEtASDS0+fiAQmw1LLvfeY0owqai35BKyMNbcVSpoxKrvUBskiNipy2VHOACuvBDOBVjUJAXLWNBpOvWjIHD2gIwCTiARX0Pku+uGobMFttCEbPEorDBODPADT2/WgGRGrAhxxIRw3Gm4A2Y4M3uKEVYHNlpTg6bV41EOmYKYwFZJMVDa3iXbA1swGSxHOUay/Z2x747SdbQYOWEXzXs90jgXpeTdAU+sTbkNexX0jqK+OG/W702ALYQBfW3kFneelr9e2A8WoaFgyYx/EMiLDSeNWEtcd8c613Wzpk1NZZHikyjtFuGH0hB3hm2Pab2MkHkBG5+M0Qbxca/CgPfY+7LT9fFB/yaETZbl29PGqlqn47jzBeWnxJcj8gbsuvOq/A3cj+3+3BuEOYvOMz9Svutnz2N1vG9n/yDv6/vD18HN1Ph+PxerMvv/sj3V5dD3y5/ws=);lineShape=1;" vertex="1" parent="v08rIDwoiFzqt1NzFTo6-139">
          <mxGeometry x="271.3154683852266" y="1.993153501401025" width="18.947096234053266" height="67.74684649859893" as="geometry" />
        </mxCell>
        <mxCell id="v08rIDwoiFzqt1NzFTo6-80" value="" style="shape=stencil(lVfbUlsxDPyavGpsyfLlmbb/wQyhZEoJE+jt76vTjE2sc7KUt0PQ2rqsVvJObl4ebp/3Ow4vr6fjt/2vw93rw04+7ZgPTw/70+HVvnbyeSc398fT/uvp+OPp7vz38+1iuXx9P/5cTvh9xuVCWRcUhz/nXyJx/PfDl7P94+Hpwr4kSjzZJ+J23b4mijKfH6jqdUALlMIMKFQzACRqeQJwhiG0THkGiN2ZAKBSiDMgUUEuNYplBrR+xCYghkBhjjoJcYBXVAco2KdKpU0AZWIGgOKD0EyK0sQkc5pyIi2AG5VinQGVtAIAU5pjKAxdKkrZAYwb4IY8kjgAlmi5DtBGMvdDFYqgDhp8HWomAYBkZUozoJECMglTmG+wylRQ6Zh9BxlZMkhrtLrOQRsdE6h0jJ0IF4AGXKpeZRZ7cIFSit5egSxx16CLiFGZo2/PhrvN2tnFm2HNAsW5xk1h+w+RHvYC8yO+l40SDVRYqUZvzyA/tUv0sI/UkODxKqGMFTJRXZFaEamLbxtLkQBKxOoV1SaLIk60FekU91nbYFHEMWR3QyVBtFA/PK0PUN2sDto8AMUw+vxtnI/Rta2oJNVfgDpHuvJc2MMcraTIpgrYLwLxqjNRJ6wGsxUZaaPJu1OWBOXdRtq8HxlNGfj/YXsLwA0oPMatxHGOwCZaQvOmUJqbv44kb0807X01hmyBNbMh6/qgxC5o26RrnkVZ+65xdVGYAVq7BG4Dqp+ZGvvM2lbI0AX9YsNDi3BZzUBR7JLFMKeVbUghQOzMH4BAgtJaVsu8rfdAU3Og5rq/q/J2oe114TbCPki37aVvc6MKJOh89sxLcCwvK/J8vsDm17GOjoxCsVv8n+XXSoK2zeQXYPxas409zP4HyoCkWjyrAzw/r8TlnWHAfs95x37Q6z/9yX7vwvF+9PX7vr19vD217w+Pj+eX+uX//dPcfjo/6+XzXw==);lineShape=1;" vertex="1" parent="v08rIDwoiFzqt1NzFTo6-139">
          <mxGeometry x="329.780393210007" y="3.0384130807716474" width="24.919606789993" height="59.74864863343999" as="geometry" />
        </mxCell>
        <mxCell id="v08rIDwoiFzqt1NzFTo6-96" value="" style="shape=stencil(rVjZbhsxDPwavxKSqPM5Tf8jQJzaqGsHjnv9fWdraLPi2tMW6NvaJi0ew+GsNvrwtnt63W6Ce7ucT5+33/fPl91GP2xC2B932/P+gqeNPm704eV03n46n74en6+fX58my+npy+nb9A8/rn7Niw+TV3A/r9/4LD7+/ubj1eGwPy4cqkp2o4NKa/cdShRNqxPKfYesUuPgELwk4pCS1DGHUKV5ckIWV0cHFQ0khyw6OvgipdIqRT86eKmkSg1FHKtUpLr79t45caYPUQJJujUJJuksgYWEFMeyapZG+tBQpTI4JCeJlLUh4vGEnCQkUtZmO12qFBJSBbzHpJvrWd1F69i4liQpxZIf+9CqZFLWlFfQeO/lTY8Ij3Eg0MtMkkCfUrQxeYINIKGYMuVeuNvwQ5/GVrcgmTQCZdXBvpbOI7cjslCqABexd33gZ/sokbTNWdqrQTzpGjo0xlManU/XYTnbFzoKON2MP2BH4oni8miPWSLxzNWb7ZXGAwxHa8/65Z0lbQQUyR7xwMsq48YcwJDOlpTREfgwjidURwlvIlDjwEGNkHSFupqJg5dixiDTSW6dShZjU9iytXuq1k6xt8nIwgj/X8nch17xRfyVEItfjX2iROQsTNGBRgq6WoJoMRsbJ9GMTaULx/fuzPacF9XWH1PA4pl3y3LMSL7oTrH2kfG062JuEZD7rw7NbthpLAnzAtPrsVRSI8WKN032lHsTlo1BdaAhQXV4tSEVckKBIB0HH+TF9ODEbeMJGfuAAA+4NEidVC47oVlqiZ7mMEkjI7MrV/5JshHBmSvOIm6sEvgjkz5AmxlVgZCUJV370ltIVCYTiuv8PDs0PqDZQiMGKWRC8XMcHYBfT5KO6z5oFxu3Q3K96nMfAp+HbFmMR4QiFXOAFI7VPLaN61nsGI3GPpCSQoFbHFGShHY1rKp9Dd3DqQHF/Mp6275aJZKoTJjUumELqtVgb8iiUlUBexM/WDxxBx1lBRDE1hoyTuYdXrtAvFfSuHo7pTmkfokwOyQ6Z3h3jCOo/R9eZ+e5XThEpr3+9WrkLxzw8H4T87I/HK4XOcvf7c0Nvrre+ujjLw==);lineShape=1;container=0;" vertex="1" parent="v08rIDwoiFzqt1NzFTo6-139">
          <mxGeometry x="129.91083618012658" y="15.570303182571138" width="39.99810508061752" height="31.551761056742755" as="geometry" />
        </mxCell>
        <mxCell id="v08rIDwoiFzqt1NzFTo6-97" value="" style="shape=stencil(lZbbbtswDIafxreEeNDpuuveo0DTxViWFGl2evsxM5SGsk0jd46czxTJn7808NPH/uV9N1D4uJxP33e/x9fLfuAvA9F43O/O40WfBn4e+OntdN59O59+Hl+n3+8v139en36cfl2/8GfiUoHMV4rC32klJpD8f+XrBBzG4z0gEKIFQltZBEiAqgEEAdM6IBrBAiVAEgdgyMUAnICdHHKGnAyQETI6AEKwEQoBOTkk/V62QIXiAFrELoeqWdE6wBVoBogDUAFJ/ZZCWAewzoAAlR2AgayWskrDaRwGkGC1lEGqA+BMSwLR6TRGKDYCEySnD6RFtPImglqcPiggBsAE0Zd3N3Gogndy0IHELkJs6loW322CbzkgiJNDFkh2S6wT50gjV8hdHwjQiVAQ2AIxuuLTCGTFl3Kr2zLAzSNu4lN5O0CKgFYaJbsTF1VqVhqVoDhJqy91RqYj6moJoaIFQltZVqtWvbNKjeDNg0C1OWjdvAg6otWW9dPa1oBofUkKFN81KvXuLRsAzgDXZkLTWiOCKz6teqK+SuKccUmNrGtcgurZDPXufbfJRWKWgpZVPGlIP6JYgL0cpJ2ZdybgndOadOwGSLPypFH6Q1HP1eJMHM5uAhuXEwVKJ74K6Mk7A9lObxiZ9qFaX1LxBQ/QE8jmwP71R19nuyXyfYlLS/EGxDa0qydQeASI2Fvlxpa0TZUfSVpNpTxUVnXv1M2D3zg9ProtbUjj8ZvxNqAPnxfxt/FwmO7x9+/7i7suTZd+fv4H);lineShape=1;container=0;" vertex="1" parent="v08rIDwoiFzqt1NzFTo6-139">
          <mxGeometry x="190.49090183714424" y="25.574841493586177" width="7.246937263657689" height="6.438947134778974" as="geometry" />
        </mxCell>
        <mxCell id="v08rIDwoiFzqt1NzFTo6-105" value="" style="group" vertex="1" connectable="0" parent="v08rIDwoiFzqt1NzFTo6-139">
          <mxGeometry x="215.0157228203367" y="10.362780485982285" width="25.013428543616556" height="34.267520241605894" as="geometry" />
        </mxCell>
        <mxCell id="v08rIDwoiFzqt1NzFTo6-106" value="" style="shape=stencil(lVdJchsxDHyNrigQXHF2nH+4ynKkimK5ZDnL7wNliiMRo+kkt7GMBrE0muAmPrzvnt62G+H38+n4dftj/3zebeKnjcj+dbc97c/2tYmPm/jwcjxtv5yOH6/P099vTxfLy9e34/eLh58TrkXifEEJ/5p+CZWS/Pnl8wQ47F9vADVQrCMgE6d1QC7UdAQkYnBCqhTiABAhbuuAqNTSAIiRNABAoVwGQApUCwBEamNImSkoAJi/say5UUMnMKURUCpJXAeIUhgB1foAkpZGOQyAJpRA48T6wANAI1UUUu4pzoBMCpKWSHEsq1ZYpaBUR/KpwioZN/MCoCDpECiUBYDBPBCztw8gokh5kXIF/i2e4GuKqMqLeOxEMG1M0fkPJCAe8f6bEoN4Up/E2b5SBPE0qjLal070+/VZCFjLVMBoXvXtBqAVZBwosQ9JgR5ZztmF1Kigmi70SJkKCqn2Hs0AwZNWfNJGI0HDnyi6E+xMlHTwfdDWZXmtD+xCsulGjRMqIyDwzPYVLnl5UUqgrNY39SmgIpnIt9G+dBVfmTVxGSdYU16UNMAu37UH+QZqbhLmjFZm34lpjf2aW9G6NtanFBJwRZlWjPXPtbPwrn2hOmqLrQ4KGKR+sYhGURCPMS6OCZiLhihaqIybiARYIaOo0xaFy1TKfk2wdQz4L6mLbbf/y8RwJ8ycADXg32QnucWIMvCv844yU4IEMNpEx13Htc/0ffvmF4TWO3LfXvtGc9WUvvXc7zAvLlhbGQoqkXpxtysL7Y6Wg6upLcwFJV36ZXGzkjcwxyY7jnVGXAgwFo+8NvXOoG924bXFswKdcLmDeQEAnfvvh8s/AOzj+k562R8O0zPr9v/+XWU/TW+y+Pgb);lineShape=1;" vertex="1" parent="v08rIDwoiFzqt1NzFTo6-105">
          <mxGeometry x="6.996741150635444" width="18.01668739298111" height="34.267520241605894" as="geometry" />
        </mxCell>
        <mxCell id="v08rIDwoiFzqt1NzFTo6-107" value="" style="shape=stencil(lVbbUuMwDP2avGpsy7bsZxb+ozOUbWa7LVPKLvw9ClmHyJCzw1ua6FTXc6SBb54Ou8f9ENzT9XL+tf873l8PA/8YQhhPh/1lvOrTwLcD3zycL/ufl/Pz6X7+/bibLKen3+c/0z+8zDihWiZQcK/zC58o+fc3d7P9cTyt7EOiEgwgeMoAEAPFaj1UcrwNSJU49SEx8CCZUjaAQiFt21dP1Tpw5Bywj8Sxs6/IXuOx9lozZF+I2SYcyWcAqJQsQD34sA3wbsmwIVhakFsuxAKSI4+TyLYJ2VPCVap2LsThkCIV60EbHwoAhBbAAijkwSBVTdEOhmjnQEilkOuS1rqBRpRM0XrIjlgAIFG0/IyFpEJAsCFxJo899ITmVuivAUKuIzTD6dMqVTuuqf3DFj//BfzBN6QwlSn1fPaI/0tTlxKRIHtpFV8S9uQweYLvNRIqUu0rxEwMSqqAYkOKqdFpC+DsHCVVflRUaTVfJlXgWGhVO4BEEkRPptAJgDRh3gKw+w5AP4ttdImUQUi6eqqdPNUQJN263Kplm8qaAMA0+pZtK23+Oom2ChYPOr6Az7orO3tdJiBnpmy7oCqIZjVQ+FRTNKq+rY2VaiOJdP2y1blD2/bTZksFKqrr41FBzYA5qj0dNStFQBzdenaE2DfqbdSzWPEKuF+xeV+dU2gx536n+QyPi+8ehP+314eP6/NhPB7n43X9vb9W9dV86fLtGw==);lineShape=1;" vertex="1" parent="v08rIDwoiFzqt1NzFTo6-105">
          <mxGeometry y="15.424326992712395" width="23.835831549109116" height="4.494360225904302" as="geometry" />
        </mxCell>
        <mxCell id="v08rIDwoiFzqt1NzFTo6-40" value="" style="ellipse;whiteSpace=wrap;html=1;aspect=fixed;fillColor=#dae8fc;strokeColor=#6c8ebf;" vertex="1" parent="v08rIDwoiFzqt1NzFTo6-139">
          <mxGeometry x="566.4100000000001" y="11.220000000000027" width="40" height="40" as="geometry" />
        </mxCell>
        <mxCell id="v08rIDwoiFzqt1NzFTo6-43" value="" style="shape=stencil(lVfLctswDPwaXTF8gzyn6X9kJk7tqWtnHKdt/j5QNZQFyNq2N8fhmlhgsQCH+PC2f3rdDcG9XS/n77tfh+frfohfhhAOp/3ucrjKpyE+DvHh5XzZfbuc30/P09+vT+PJ8dOP88/xF35PuOrJpREV3Mf0jfcU6p9vvk6A4+G0ALCnwgrQKJbt8zlTMRc48nkbkNIKkIgBIDKVogAhUGgAECh7BYiOOAGAo5w1QFj5bYDkxOsbkqMWAICpag6pUAEcBOCdAuRABdQtyO9FDaiQtABYky5SGYdD0hzYUcSkuWpAJkZpreQ1h+qo4jpEHVJtWBryezqklv4mjapDaoUCIi0hmf7hXpnNwhlApYrqEKg1DWhUQEhehKA5eOfIgSukI2O0VzQEcBSKBUSQ10ItWdLIZlIXziKrDrRD7LqZz2eYo9SjXegCuZiIwJwPsGiSDROPh7rzkUK0AAcS5JmyUfYs3fsy8t2xljcgS5LmbRYAhVpt/0uSkIpGH151Z0CjQSJelZkBabnBAsTVkK1yt+mFUBOyVVGSNu6xE1BaZVyu2rkBDj6v0tq6I9wHeDveBJB5G8D9/gVnBs2TV+IWMaIqUDPxFPLg9+V8+Z/zwdZMpkJGNbMVkLHTQH6CFREXckCm3k4pGZwZFEy2FS0hmcwMen9euBajv8DzbrVbJBiP4SvLSwB9vFqnZDsKSNGU9ASMiRLUj9fmK/aK8i+jRTeMb3C9kw5zZmDKSomcTsaNjoh7iPcJlJ7vmQE14ELZWVNxkEARxtmcR/O+5m5Rt3hQwcSWk+ab+oX3zxer6AQda/RYo2g8XWc/mzsGGtZi/7kVDG2mcgHrYVk7oy0CbPaD/uq5f57t5isbVQKKkAo0zVhc3oOel9FrSiyAgpqmdQ9fABrIUS12eo8AQLpG69MCQGUbH7OrkNBj9h9ev/Lh9nZ+ORyP09N7+X/71pavpnd6fPwE);lineShape=1;" vertex="1" parent="v08rIDwoiFzqt1NzFTo6-139">
          <mxGeometry x="519.6515694454242" y="4.057243736418059" width="17.96102786198901" height="53.24276423623746" as="geometry" />
        </mxCell>
        <mxCell id="v08rIDwoiFzqt1NzFTo6-44" value="" style="shape=stencil(rVbLctswDPwaXTEgwQd4TtL/yEycWhPHzjju6+8LV5Vikta2nslNphYWsFgsMcjd+/bxbTN4fj8dDy+bH+PTaTvI/eD9uN9ujuPJngZ5GOTu+XDcfD0evu2fpt9vj2fk+en18P38Dz+nOMck6Rzl+dd0EknLn4MvE3437i/w3lN2FT5RCuv4wJRihRdyuo6PSqXOx5FL63hVilLhmZjX8cWT5wrvKXmAjxS0zofJAYKKEof6A44KYKgUSnVGkmBKjpcSl55ZV1DRpS06GW0oIJMvVYB6kgwCAoW6zUa0oqpdW4MRpwIa3aVkVf2V4vUAaZVqvRQgPeVZyUvRiQSwlJWkTikLBdC5nNs+mNwZiKkPCCYmUHSfks1nvKloJ1BLPa0BqrXvG88H/ykMM4CblJehYfTSdhk6WD884uDwXJnPkKGQegtIAqXam4w1nhFLnY1pIQVC6n3SiBPQt96IL3j4pIhYrphGAaZht4/GrgrQbLsNXBOQyEfAE6mv8YEcGlAKTQWeIkgokms8CTu3zMNyYdweXSat8nKAQmKKdb0pzCcr+PaqMn5Ax3j++jI6ZqlAdty6kQh5wOdin4s/yrxwrPAZm+s/wes/Umo1DSc5z/r9WKcUwG9d1/6Nt4eP3fB53O2m1fLyfbtL2tG0h8rDbw==);lineShape=1;" vertex="1" parent="v08rIDwoiFzqt1NzFTo6-139">
          <mxGeometry x="514.235430031569" y="24.745239259799746" width="21.552043628566366" height="4.949881503497636" as="geometry" />
        </mxCell>
        <mxCell id="v08rIDwoiFzqt1NzFTo6-45" value="" style="shape=stencil(lVhJcttADHyNrqgZYDacHecfrrIcq6JILtnZfh8wyjAakGyXbxSFJpbpBkDu5O71+eFlv+Pw+nY5f93/PDy+Pe/k0475cHreXw5vdrWT+53cPZ0v+y+X8/fT4/X3y8NkOV19O/+YnvDriiuVuE4oDr//3SHJf298vtofD6cb+9yohsFeKbRt+1RI02AfhTRuA6RQjgOAA00/NwGRShsBiSIIiSuVMgIaSQGA5D0IUwEhsVAck5ZKASTNTHX0kCyrAD3oWCUrdFQAKFRGQA5UAUACiY6ATBkBck9xZpI9AlQp2d9jlUqG3LMUAw+AOge5TtZIbSxrzRQFACo150Epg3MoQnXkUpMuqFWABcBj0q31MqwCNJCO56CWFUhaE+UxB2VKgHxaScYqqZCApFV9zzCfCQgohkDBdY1MFZTJXCSXtSkIZV29grQRgy5gAQSXhKUFuGFlL+IBDfC7Lch0U4d1RKKQvYsKFNHCohsrReChNt+ZrEwQsOgbWrqotgCyOOoMcqi1t/cbNjFgk0mSHTfmfrteJe5MuFEEInjLXWG3mkMe7Jh4AUASEkrBh4T6t1V9qWpFCmq+M+nMri3J+aQz7N8TNx2g9Mm6FVJykqtwF7DneY02UpQDU1toFIVkBxejByg4B6OG55JCPXwYMM2gRTtGMyilPjXnkVIgW8Uk74aW7TNotPNi8DbYjTmTjvSuAneyaDUZQyrmAXTjaGR2AIaKM+KMKeQKmZH6sjPbM1xOol9mbFtp4PmLiWgbXwLxB98wbFEO4JC5a3e2D71HrdPOD6vpDjqA4MVsJUABRVtQR5raHbQ1WApuT48MVyWeh+XMa2qgRZpwslvT+7vHeomkx9vtQ6f5ur0NPnH2aBGblK/OHs3msuAEXi9MIertI4jH1nHOPn5AIXuXdJwLXXTr9s2vtpEyWi2CZxCWpNk7PthujnYds3cahu+2Uzzi7N/Ld4wn9/Vtq54fejd/394u/n8IeDocj9fvCLf/+w8Hduv60UHu/wA=);lineShape=1;" vertex="1" parent="v08rIDwoiFzqt1NzFTo6-139">
          <mxGeometry x="543.0022900018303" y="0.07072401598225042" width="20.555150882542875" height="59.268950545430016" as="geometry" />
        </mxCell>
        <mxCell id="v08rIDwoiFzqt1NzFTo6-47" value="" style="shape=stencil(lVjZctswDPwav2JA8MRzmv5HZuLUnrpxxnF6/H2heuiYkLQdv8kylsSxWILaxIf33dPbdiP8fj4dv29/7Z/Pu038shHZv+62p/3ZnjbxcRMfXo6n7bfT8eP1+fL77WmynJ5+HH9OK/y+4HKmpBNK+M/lTSCt/158vdgf9q839oWptsE+U07AvlGUcX2mHNcBNVHlEWBvdB3QAokDKBXgUiuUx5AlUQIuqe0wxiyNFLikqf/dATFSaQBQKY9Zig27pMRlAKRIgSGg5BHQiJFLSm3cIUt3chEQmInHQuTS11jeolEb81oCtQAAhWIdAVbLDABCPEZdAyUQRMvEYyFqoQTIVHMnZwc0pga4URLF0SXbU0DlsjVkHAFKEQCicWMEqHEDlNpaPo6lnioDRCDUzuYrQCG/Q/T8vmHLcuW8bNgOSAVMhYK3Z8A94/LIVWtBBdRjrxmKeTHrBdMERO2ZrFrNECuE2sgiE6kK4s1ekZSpoN70ram4XibSYQy4KWz+0EjE7yCgl+WqDTchB6CRk6q7GIQSyqklqfgiKCiyFB+0Gg9Rp6XeVze0C4im5rELunXmrqVVZ62ZUB2SlxcDKKiDnd9FZwCgqYXqrDUj8ChSVB9yBHUOxLPWRAGwPxOsaMgf9oeOsaKCeGUmv0ICWt84kXwjKCDRvfah+Fmh1c6q5QBmHGoRR8B+ZqsKz2U701yO7BxF8pi1O3AFSC/LMumqF2B7gw4QGwycAhcrG6BFjdTuGncMoCORMkM9mnZwM5upLMiS5UTGtNoYyXg6zw5wZe/a9OJEWGp3cu2+4Haw/kaT7XQhceM8HraTzm4wCfazTcrsGgjqy5TDcYPcFXDZ3iR9tLekofWLL3OEo4it7/wRmCCzV3b2iEU2P7qT2eZDQCLrfsdr7oq/mn9vjxotZX8gcB/Sl+2r72Q8ulgXBvH+IPurLnzaF+BPTr5eoSd4tQPuuZL/394ePu//L/vD4fL54PZ//73AXl2+NcTHvw==);lineShape=1;" vertex="1" parent="v08rIDwoiFzqt1NzFTo6-139">
          <mxGeometry x="607.9129853797148" y="0.0018045754200102238" width="22.435090447596735" height="57.89142370181298" as="geometry" />
        </mxCell>
      </root>
    </mxGraphModel>
  </diagram>
</mxfile>
